<?xml version="1.0" standalone="no"?>
<!DOCTYPE svg PUBLIC "-//W3C//DTD SVG 20010904//EN"
 "http://www.w3.org/TR/2001/REC-SVG-20010904/DTD/svg10.dtd">
<svg version="1.0" xmlns="http://www.w3.org/2000/svg"
 width="500.000000pt" height="500.000000pt" viewBox="0 0 500.000000 500.000000"
 preserveAspectRatio="xMidYMid meet">
<metadata>
Created by potrace 1.14, written by Peter Selinger 2001-2017
</metadata>
<g transform="translate(0.000000,500.000000) scale(0.100000,-0.100000)"
fill="#000000" stroke="none">
<path d="M2849 4077 c-231 -117 -348 -190 -402 -252 -57 -65 -115 -211 -131
-330 -3 -22 -8 -57 -11 -77 -3 -21 -1 -38 4 -38 5 0 27 24 48 53 63 82 170
194 232 241 86 66 86 63 -2 -26 -137 -138 -241 -317 -265 -453 -4 -22 -7 -139
-7 -261 l0 -220 -110 -29 c-101 -27 -107 -29 -75 -36 78 -16 124 -18 168 -8
68 15 68 16 172 43 52 13 139 34 193 46 54 13 96 24 94 26 -1 2 -23 6 -47 9
-25 3 -53 8 -62 11 -10 3 -65 -4 -124 -16 -58 -12 -107 -20 -110 -18 -2 2 -6
29 -10 59 -3 29 -7 65 -9 78 -7 42 5 42 64 1 l58 -39 15 72 14 73 -75 -22 -76
-22 -6 40 c-6 45 -4 119 6 186 9 58 44 154 54 147 13 -7 145 32 216 64 77 35
171 98 207 139 61 69 108 182 124 292 9 65 12 340 4 340 -4 0 -72 -33 -151
-73z"/>
<path d="M1515 3738 c10 -81 28 -143 65 -225 119 -257 340 -453 511 -455 49 0
117 26 157 61 l23 20 -42 63 c-43 64 -110 136 -164 176 -19 14 -23 20 -10 15
34 -11 77 -44 153 -117 70 -67 74 -69 69 -41 -28 178 -119 307 -267 378 -42
20 -142 55 -224 77 -82 23 -175 52 -207 66 -32 13 -61 24 -64 24 -2 0 -3 -19
0 -42z"/>
<path d="M2927 3348 c-15 -35 -27 -68 -27 -74 0 -8 24 -12 69 -12 l70 0 -37
74 c-20 41 -39 74 -42 74 -3 0 -18 -28 -33 -62z"/>
<path d="M2769 3380 c0 -3 -2 -14 -4 -25 -10 -62 -14 -135 -6 -135 5 0 36 10
70 23 l61 23 -60 59 c-33 33 -60 57 -61 55z"/>
<path d="M3101 3318 c-30 -32 -52 -59 -50 -61 2 -1 24 -10 49 -19 25 -9 54
-19 64 -24 18 -7 19 -4 12 57 -8 82 -11 98 -17 102 -2 1 -28 -23 -58 -55z"/>
<path d="M2590 3271 c0 -5 7 -28 15 -51 8 -23 15 -53 15 -66 0 -34 18 -29 74
19 l49 43 -72 32 c-78 35 -81 36 -81 23z"/>
<path d="M3252 3237 l-63 -33 51 -43 c54 -46 65 -45 74 4 3 17 10 46 16 65 5
19 10 36 10 37 0 9 -33 -2 -88 -30z"/>
<path d="M2869 3205 c-155 -41 -272 -167 -294 -319 l-8 -48 29 6 c16 4 39 8
52 11 13 2 31 6 40 9 9 3 28 7 42 10 42 7 283 57 320 66 19 5 54 12 77 15 64
9 174 33 180 39 8 8 -40 78 -74 111 -39 37 -98 74 -147 91 -55 20 -160 24
-217 9z"/>
<path d="M2460 3125 c0 -10 82 -125 89 -125 8 0 74 110 69 115 -6 6 -158 16
-158 10z"/>
<path d="M3407 3114 c-1 -2 -24 -4 -50 -5 -26 -2 -47 -7 -47 -12 0 -12 63
-117 70 -117 4 0 16 17 28 38 12 20 31 51 42 69 l21 32 -30 -1 c-17 -1 -32 -2
-34 -4z"/>
<path d="M3055 2869 c-44 -10 -93 -20 -110 -22 -51 -8 -189 -38 -205 -44 -8
-3 14 -11 50 -17 59 -11 78 -9 200 17 74 15 142 29 150 30 146 27 208 42 198
48 -22 14 -202 6 -283 -12z"/>
<path d="M3409 2856 c-2 -2 -20 -6 -39 -9 -39 -6 -56 -10 -190 -38 -52 -11
-121 -25 -152 -31 -31 -6 -55 -15 -53 -19 3 -4 35 -10 72 -14 51 -5 90 -1 158
14 50 11 101 22 115 25 140 28 153 33 161 54 8 20 5 22 -30 22 -21 0 -40 -2
-42 -4z"/>
<path d="M2750 2720 c-191 -45 -345 -83 -379 -95 l-35 -12 54 -6 c30 -3 67 -9
82 -12 15 -3 100 14 205 41 98 26 183 47 188 49 6 1 38 8 73 15 66 13 72 19
25 26 -91 13 -134 12 -213 -6z"/>
<path d="M3040 2690 c-19 -5 -48 -12 -65 -15 -62 -12 -351 -86 -370 -95 -17
-7 -16 -9 13 -11 17 -1 35 -2 40 -3 65 -16 96 -16 164 3 118 32 351 93 378 98
26 4 36 10 29 17 -10 10 -157 14 -189 6z"/>
<path d="M2151 2564 c-131 -40 -372 -126 -367 -131 2 -2 16 -6 32 -8 16 -3 57
-10 90 -16 56 -10 66 -9 110 11 27 12 130 51 229 85 196 69 191 61 63 84 -39
7 -64 3 -157 -25z"/>
<path d="M2395 2523 c-180 -56 -358 -126 -343 -134 12 -6 31 -10 132 -25 36
-5 96 13 192 58 11 5 83 31 159 57 l139 48 -74 12 c-41 7 -79 14 -85 15 -5 2
-59 -13 -120 -31z"/>
<path d="M2703 2499 c-128 -37 -390 -133 -406 -149 -5 -4 19 -11 54 -15 34 -4
74 -11 89 -15 21 -6 53 3 143 40 64 27 165 65 226 86 61 21 109 39 107 41 -1
2 -37 9 -78 16 -67 11 -83 11 -135 -4z"/>
<path d="M1878 2320 c-109 -54 -188 -99 -188 -108 0 -7 33 -28 102 -64 l36
-19 95 63 c52 35 127 79 165 98 74 37 84 45 55 47 -10 1 -53 8 -95 16 l-77 13
-93 -46z"/>
<path d="M2120 2273 c-105 -55 -234 -136 -246 -154 -6 -11 48 -36 97 -44 19
-3 46 -8 61 -11 22 -4 44 7 119 60 50 37 129 87 175 112 85 46 98 58 67 61
-10 1 -52 8 -93 16 l-74 15 -106 -55z"/>
<path d="M542 1861 c-4 -3 -8 -109 -8 -235 l1 -228 125 4 c103 3 132 8 166 26
79 41 124 116 124 204 -1 113 -79 207 -187 224 -52 8 -211 12 -221 5z m214
-96 c48 -20 77 -68 77 -129 0 -94 -41 -139 -135 -148 -54 -6 -49 -17 -49 117
0 36 0 89 0 119 l1 54 38 0 c20 0 51 -6 68 -13z"/>
<path d="M1809 1855 c-1 -5 -2 -110 -3 -232 l-1 -223 57 0 56 0 0 218 c0 119
-1 224 -4 232 -4 18 -103 22 -105 5z"/>
<path d="M2449 1840 c-1 -29 -1 -409 0 -427 1 -9 19 -13 56 -13 l55 0 0 94 0
95 28 3 c15 2 55 1 90 0 l62 -4 0 -94 0 -95 56 3 56 3 -1 200 c0 110 0 214 -1
231 0 30 0 30 -55 30 l-55 -1 0 -92 0 -93 -90 0 -90 0 0 93 0 92 -55 0 c-52 1
-55 0 -56 -25z"/>
<path d="M2184 1768 c-17 -4 -37 -15 -44 -23 -17 -21 -30 -19 -30 5 0 18 -7
20 -55 20 l-55 0 0 -185 0 -185 55 0 c30 0 55 3 55 8 1 4 1 52 2 107 1 138 18
167 89 157 42 -6 52 -39 52 -162 l1 -110 56 0 57 0 -2 133 c-1 137 -9 171 -52
209 -25 23 -91 36 -129 26z"/>
<path d="M3055 1768 c-23 -5 -58 -23 -79 -40 -115 -94 -77 -280 65 -322 134
-40 250 44 250 180 0 124 -108 208 -236 182z m99 -117 c40 -41 21 -143 -30
-155 -26 -7 -65 6 -81 25 -6 8 -14 30 -17 49 -13 85 71 138 128 81z"/>
<path d="M1065 1746 c-56 -34 -79 -77 -81 -155 -3 -72 10 -105 58 -151 46 -45
146 -57 206 -26 36 19 79 62 85 86 5 18 0 20 -55 20 -40 0 -64 -5 -75 -15 -18
-19 -69 -14 -91 8 -27 28 -4 35 118 33 l120 -1 0 46 c0 66 -35 127 -90 156
-60 32 -141 31 -195 -1z m156 -100 c17 -21 17 -21 -48 -24 -72 -3 -76 -2 -68
20 16 40 85 42 116 4z"/>
<path d="M1365 1758 c7 -25 67 -194 87 -248 45 -123 31 -110 114 -110 41 0 74
2 74 3 0 4 114 322 125 350 7 16 2 18 -56 15 l-63 -3 -40 -134 c-28 -93 -42
-128 -48 -115 -4 11 -21 66 -38 124 -17 58 -33 111 -35 118 -3 8 -25 12 -64
12 -44 0 -59 -3 -56 -12z"/>
<path d="M3348 1763 c-2 -5 -3 -64 -3 -133 2 -130 11 -166 51 -202 19 -16 77
-34 104 -32 8 1 22 2 31 3 9 0 28 13 43 27 l26 27 0 -27 c0 -25 2 -26 55 -26
37 0 55 4 56 13 1 15 1 339 0 350 -1 4 -26 7 -56 7 l-55 0 0 -114 c0 -125 -9
-148 -63 -160 -21 -5 -33 -1 -52 18 -24 24 -25 31 -25 141 l0 115 -54 0 c-30
0 -56 -3 -58 -7z"/>
<path d="M3844 1756 c-41 -18 -74 -62 -74 -98 0 -47 43 -82 128 -103 78 -19
99 -38 67 -61 -20 -15 -53 -10 -70 10 -5 6 -36 13 -67 14 -57 2 -57 2 -52 -26
8 -40 41 -70 96 -87 45 -13 62 -13 130 1 31 6 88 66 88 93 0 66 -36 96 -142
122 -60 14 -80 35 -53 55 21 15 54 10 71 -12 7 -9 31 -14 68 -14 55 0 57 1 51
23 -12 39 -33 64 -68 81 -42 19 -130 20 -173 2z"/>
<path d="M4213 1749 c-52 -25 -83 -73 -90 -137 -7 -67 11 -124 52 -165 47 -47
95 -59 180 -44 43 7 109 61 118 97 5 18 0 20 -51 20 -32 -1 -68 -7 -82 -15
-14 -8 -33 -14 -42 -15 -19 0 -58 33 -58 50 0 5 39 9 88 9 179 0 162 -5 162
44 0 136 -149 220 -277 156z m119 -78 c10 -1 38 -31 38 -42 0 -5 -29 -9 -65
-9 -36 0 -65 3 -65 8 1 22 43 52 69 47 9 -2 19 -4 23 -4z"/>
<path d="M1663 1057 c-43 -24 -39 -56 11 -81 26 -13 34 -22 27 -29 -7 -7 -15
-7 -23 0 -12 8 -20 9 -45 4 -3 0 2 -10 12 -21 26 -28 71 -26 91 5 19 29 12 43
-32 61 -19 8 -34 19 -34 24 0 13 27 13 34 1 3 -5 15 -7 25 -4 16 4 18 8 9 23
-14 22 -50 30 -75 17z"/>
<path d="M1973 990 c0 -71 2 -80 19 -80 16 0 18 9 18 80 0 71 -2 80 -18 80
-17 0 -19 -9 -19 -80z"/>
<path d="M2463 985 l-1 -75 49 0 c39 0 47 3 43 15 -4 8 -17 15 -30 15 -30 0
-32 27 -2 32 32 5 35 28 4 28 -33 0 -36 29 -3 31 12 1 25 1 28 1 3 -1 6 6 6
14 0 10 -13 14 -47 14 l-46 0 -1 -75z"/>
<path d="M1816 1014 c-22 -21 -20 -67 2 -87 40 -37 105 -7 105 48 0 48 -73 74
-107 39z m63 -27 c8 -10 7 -19 -4 -33 -15 -19 -15 -19 -30 0 -11 14 -12 23 -4
33 6 7 15 13 19 13 4 0 13 -6 19 -13z"/>
<path d="M2075 1007 c-8 -12 -15 -28 -15 -37 0 -9 7 -25 15 -37 12 -18 25 -22
65 -21 l50 0 0 58 0 58 -50 0 c-40 1 -53 -3 -65 -21z m73 -31 c5 -24 -10 -38
-31 -30 -20 7 -23 40 -4 47 19 8 32 2 35 -17z"/>
<path d="M2250 970 c0 -53 2 -60 20 -60 17 0 20 7 20 39 0 30 4 40 20 44 32 8
14 34 -25 35 l-35 1 0 -59z"/>
<path d="M2616 1021 c-1 -3 -3 -30 -4 -58 -1 -46 1 -53 18 -53 17 0 20 7 20
39 0 22 4 43 10 46 19 11 36 -10 36 -45 0 -28 4 -35 19 -35 16 0 19 7 18 43
-2 58 -15 71 -69 70 -24 0 -46 -3 -48 -7z"/>
<path d="M2802 1017 c-18 -22 -21 -64 -6 -86 16 -23 53 -27 85 -11 32 18 23
33 -16 26 -22 -4 -35 -3 -35 4 0 5 3 9 8 9 4 -1 21 -1 39 0 27 1 31 4 28 24
-3 12 -12 28 -22 35 -22 16 -68 16 -81 -1z m63 -27 c4 -6 -6 -10 -22 -10 -22
0 -25 2 -13 10 19 12 27 12 35 0z"/>
<path d="M2958 1001 c-6 -52 3 -91 22 -91 13 0 17 8 15 36 -1 28 3 38 17 42
10 2 18 12 18 21 0 13 -9 17 -34 18 -31 1 -35 -2 -38 -26z"/>
<path d="M3086 1011 c-37 -40 -3 -109 49 -99 26 5 30 1 17 -17 -6 -9 -26 -12
-34 -6 -2 2 -13 4 -25 7 -17 3 -21 0 -16 -11 12 -34 66 -45 98 -21 16 11 20
28 21 89 l2 75 -48 0 c-34 1 -53 -4 -64 -17z m69 -32 c8 -26 -6 -42 -28 -33
-17 6 -23 35 -10 47 13 14 32 7 38 -14z"/>
<path d="M3261 978 c23 -57 23 -58 13 -101 -6 -24 -4 -28 10 -25 15 3 86 142
86 168 0 23 -32 7 -41 -20 -6 -16 -15 -30 -19 -30 -4 0 -13 14 -19 30 -7 20
-17 30 -30 30 l-21 0 21 -52z"/>
</g>
</svg>
